<mxfile host="app.diagrams.net" modified="2022-05-10T12:17:46.183Z" agent="5.0 (Windows NT 10.0; Win64; x64) AppleWebKit/537.36 (KHTML, like Gecko) Chrome/101.0.4951.54 Safari/537.36" etag="w07wEXvGkiRa87QfatUa" version="18.0.2" type="github">
  <diagram id="7MZHf1_QIo3mwAxeYd8g" name="Page-1">
    <mxGraphModel dx="1422" dy="705" grid="1" gridSize="10" guides="1" tooltips="1" connect="1" arrows="1" fold="1" page="1" pageScale="1" pageWidth="850" pageHeight="1100" background="#C2C2C2" math="0" shadow="0">
      <root>
        <mxCell id="0" />
        <mxCell id="1" parent="0" />
        <mxCell id="WY_I_EQtTfwrtABAl8Oe-36" value="" style="edgeStyle=orthogonalEdgeStyle;rounded=0;orthogonalLoop=1;jettySize=auto;html=1;" edge="1" parent="1" source="WY_I_EQtTfwrtABAl8Oe-34" target="WY_I_EQtTfwrtABAl8Oe-35">
          <mxGeometry relative="1" as="geometry" />
        </mxCell>
        <mxCell id="WY_I_EQtTfwrtABAl8Oe-34" value="Start" style="strokeWidth=2;html=1;shape=mxgraph.flowchart.start_1;whiteSpace=wrap;" vertex="1" parent="1">
          <mxGeometry x="375" y="50" width="100" height="60" as="geometry" />
        </mxCell>
        <mxCell id="WY_I_EQtTfwrtABAl8Oe-38" value="" style="edgeStyle=orthogonalEdgeStyle;rounded=0;orthogonalLoop=1;jettySize=auto;html=1;" edge="1" parent="1" source="WY_I_EQtTfwrtABAl8Oe-35" target="WY_I_EQtTfwrtABAl8Oe-37">
          <mxGeometry relative="1" as="geometry" />
        </mxCell>
        <mxCell id="WY_I_EQtTfwrtABAl8Oe-35" value="Choose random word from word bank" style="whiteSpace=wrap;html=1;strokeWidth=2;" vertex="1" parent="1">
          <mxGeometry x="365" y="140" width="120" height="60" as="geometry" />
        </mxCell>
        <mxCell id="WY_I_EQtTfwrtABAl8Oe-40" value="" style="edgeStyle=orthogonalEdgeStyle;rounded=0;orthogonalLoop=1;jettySize=auto;html=1;" edge="1" parent="1" source="WY_I_EQtTfwrtABAl8Oe-37" target="WY_I_EQtTfwrtABAl8Oe-39">
          <mxGeometry relative="1" as="geometry" />
        </mxCell>
        <mxCell id="WY_I_EQtTfwrtABAl8Oe-37" value="Generate list with blanks with length equal to the number of letters chosen" style="whiteSpace=wrap;html=1;strokeWidth=2;" vertex="1" parent="1">
          <mxGeometry x="365" y="230" width="120" height="60" as="geometry" />
        </mxCell>
        <mxCell id="WY_I_EQtTfwrtABAl8Oe-42" value="" style="edgeStyle=orthogonalEdgeStyle;rounded=0;orthogonalLoop=1;jettySize=auto;html=1;" edge="1" parent="1" source="WY_I_EQtTfwrtABAl8Oe-39" target="WY_I_EQtTfwrtABAl8Oe-41">
          <mxGeometry relative="1" as="geometry" />
        </mxCell>
        <mxCell id="WY_I_EQtTfwrtABAl8Oe-39" value="Guess a letter" style="shape=parallelogram;perimeter=parallelogramPerimeter;whiteSpace=wrap;html=1;fixedSize=1;strokeWidth=2;" vertex="1" parent="1">
          <mxGeometry x="365" y="320" width="120" height="60" as="geometry" />
        </mxCell>
        <mxCell id="WY_I_EQtTfwrtABAl8Oe-47" value="" style="edgeStyle=orthogonalEdgeStyle;rounded=0;orthogonalLoop=1;jettySize=auto;html=1;" edge="1" parent="1" source="WY_I_EQtTfwrtABAl8Oe-41" target="WY_I_EQtTfwrtABAl8Oe-46">
          <mxGeometry relative="1" as="geometry" />
        </mxCell>
        <mxCell id="WY_I_EQtTfwrtABAl8Oe-51" value="" style="edgeStyle=orthogonalEdgeStyle;rounded=0;orthogonalLoop=1;jettySize=auto;html=1;" edge="1" parent="1" source="WY_I_EQtTfwrtABAl8Oe-41" target="WY_I_EQtTfwrtABAl8Oe-50">
          <mxGeometry relative="1" as="geometry" />
        </mxCell>
        <mxCell id="WY_I_EQtTfwrtABAl8Oe-41" value="Is letter in word?" style="rhombus;whiteSpace=wrap;html=1;strokeWidth=2;" vertex="1" parent="1">
          <mxGeometry x="368" y="410" width="115" height="110" as="geometry" />
        </mxCell>
        <mxCell id="WY_I_EQtTfwrtABAl8Oe-43" value="Yes" style="text;html=1;strokeColor=none;fillColor=none;align=center;verticalAlign=middle;whiteSpace=wrap;rounded=0;" vertex="1" parent="1">
          <mxGeometry x="500" y="430" width="60" height="30" as="geometry" />
        </mxCell>
        <mxCell id="WY_I_EQtTfwrtABAl8Oe-44" value="No" style="text;html=1;strokeColor=none;fillColor=none;align=center;verticalAlign=middle;whiteSpace=wrap;rounded=0;" vertex="1" parent="1">
          <mxGeometry x="290" y="430" width="60" height="30" as="geometry" />
        </mxCell>
        <mxCell id="WY_I_EQtTfwrtABAl8Oe-53" value="" style="edgeStyle=orthogonalEdgeStyle;rounded=0;orthogonalLoop=1;jettySize=auto;html=1;" edge="1" parent="1" source="WY_I_EQtTfwrtABAl8Oe-46" target="WY_I_EQtTfwrtABAl8Oe-52">
          <mxGeometry relative="1" as="geometry" />
        </mxCell>
        <mxCell id="WY_I_EQtTfwrtABAl8Oe-46" value="Replace the blank with the letter" style="whiteSpace=wrap;html=1;strokeWidth=2;" vertex="1" parent="1">
          <mxGeometry x="510" y="550" width="120" height="60" as="geometry" />
        </mxCell>
        <mxCell id="WY_I_EQtTfwrtABAl8Oe-55" value="" style="edgeStyle=orthogonalEdgeStyle;rounded=0;orthogonalLoop=1;jettySize=auto;html=1;" edge="1" parent="1" source="WY_I_EQtTfwrtABAl8Oe-50" target="WY_I_EQtTfwrtABAl8Oe-54">
          <mxGeometry relative="1" as="geometry" />
        </mxCell>
        <mxCell id="WY_I_EQtTfwrtABAl8Oe-50" value="Lose a life" style="whiteSpace=wrap;html=1;strokeWidth=2;" vertex="1" parent="1">
          <mxGeometry x="220" y="550" width="120" height="60" as="geometry" />
        </mxCell>
        <mxCell id="WY_I_EQtTfwrtABAl8Oe-59" style="edgeStyle=orthogonalEdgeStyle;rounded=0;orthogonalLoop=1;jettySize=auto;html=1;" edge="1" parent="1" source="WY_I_EQtTfwrtABAl8Oe-52" target="WY_I_EQtTfwrtABAl8Oe-58">
          <mxGeometry relative="1" as="geometry" />
        </mxCell>
        <mxCell id="WY_I_EQtTfwrtABAl8Oe-61" style="edgeStyle=orthogonalEdgeStyle;rounded=0;orthogonalLoop=1;jettySize=auto;html=1;entryX=1;entryY=0.5;entryDx=0;entryDy=0;" edge="1" parent="1" source="WY_I_EQtTfwrtABAl8Oe-52" target="WY_I_EQtTfwrtABAl8Oe-39">
          <mxGeometry relative="1" as="geometry">
            <Array as="points">
              <mxPoint x="720" y="720" />
              <mxPoint x="720" y="350" />
            </Array>
          </mxGeometry>
        </mxCell>
        <mxCell id="WY_I_EQtTfwrtABAl8Oe-52" value="All letters displayed?" style="rhombus;whiteSpace=wrap;html=1;strokeWidth=2;" vertex="1" parent="1">
          <mxGeometry x="530" y="680" width="80" height="80" as="geometry" />
        </mxCell>
        <mxCell id="WY_I_EQtTfwrtABAl8Oe-57" style="edgeStyle=orthogonalEdgeStyle;rounded=0;orthogonalLoop=1;jettySize=auto;html=1;entryX=0;entryY=0.5;entryDx=0;entryDy=0;" edge="1" parent="1" source="WY_I_EQtTfwrtABAl8Oe-54" target="WY_I_EQtTfwrtABAl8Oe-39">
          <mxGeometry relative="1" as="geometry">
            <mxPoint x="140" y="340" as="targetPoint" />
            <Array as="points">
              <mxPoint x="130" y="720" />
              <mxPoint x="130" y="350" />
            </Array>
          </mxGeometry>
        </mxCell>
        <mxCell id="WY_I_EQtTfwrtABAl8Oe-60" style="edgeStyle=orthogonalEdgeStyle;rounded=0;orthogonalLoop=1;jettySize=auto;html=1;entryX=0.5;entryY=0;entryDx=0;entryDy=0;" edge="1" parent="1" source="WY_I_EQtTfwrtABAl8Oe-54" target="WY_I_EQtTfwrtABAl8Oe-58">
          <mxGeometry relative="1" as="geometry">
            <mxPoint x="440" y="720" as="targetPoint" />
          </mxGeometry>
        </mxCell>
        <mxCell id="WY_I_EQtTfwrtABAl8Oe-54" value="No more lives?" style="rhombus;whiteSpace=wrap;html=1;strokeWidth=2;" vertex="1" parent="1">
          <mxGeometry x="240" y="680" width="80" height="80" as="geometry" />
        </mxCell>
        <mxCell id="WY_I_EQtTfwrtABAl8Oe-58" value="END" style="ellipse;whiteSpace=wrap;html=1;" vertex="1" parent="1">
          <mxGeometry x="375" y="780" width="120" height="80" as="geometry" />
        </mxCell>
        <mxCell id="WY_I_EQtTfwrtABAl8Oe-62" value="Yes" style="text;html=1;strokeColor=none;fillColor=none;align=center;verticalAlign=middle;whiteSpace=wrap;rounded=0;" vertex="1" parent="1">
          <mxGeometry x="470" y="680" width="60" height="30" as="geometry" />
        </mxCell>
        <mxCell id="WY_I_EQtTfwrtABAl8Oe-63" value="Yes" style="text;html=1;strokeColor=none;fillColor=none;align=center;verticalAlign=middle;whiteSpace=wrap;rounded=0;" vertex="1" parent="1">
          <mxGeometry x="308" y="680" width="60" height="30" as="geometry" />
        </mxCell>
        <mxCell id="WY_I_EQtTfwrtABAl8Oe-64" value="No" style="text;html=1;strokeColor=none;fillColor=none;align=center;verticalAlign=middle;whiteSpace=wrap;rounded=0;" vertex="1" parent="1">
          <mxGeometry x="170" y="680" width="60" height="30" as="geometry" />
        </mxCell>
        <mxCell id="WY_I_EQtTfwrtABAl8Oe-65" value="No" style="text;html=1;strokeColor=none;fillColor=none;align=center;verticalAlign=middle;whiteSpace=wrap;rounded=0;" vertex="1" parent="1">
          <mxGeometry x="600" y="680" width="60" height="30" as="geometry" />
        </mxCell>
      </root>
    </mxGraphModel>
  </diagram>
</mxfile>
